<svg xmlns="http://www.w3.org/2000/svg" xmlns:xlink="http://www.w3.org/1999/xlink" width="217" zoomAndPan="magnify" viewBox="0 0 162.75 34.499999" height="46" preserveAspectRatio="xMidYMid meet" version="1.0"><defs><g/><clipPath id="25cd30c64f"><path d="M 3.765625 1.308594 L 34.078125 1.308594 L 34.078125 33.097656 L 3.765625 33.097656 Z M 3.765625 1.308594 " clip-rule="nonzero"/></clipPath></defs><g fill="#000000" fill-opacity="1"><g transform="translate(26.716962, 30.996304)"><g><path d="M 1.28125 0 L 1.28125 -12.21875 C 1.28125 -13.175781 1.515625 -14.039062 1.984375 -14.8125 C 2.460938 -15.59375 3.101562 -16.207031 3.90625 -16.65625 C 4.707031 -17.113281 5.601562 -17.34375 6.59375 -17.34375 L 13.0625 -17.34375 L 13.0625 -13.875 L 7.109375 -13.875 C 6.648438 -13.875 6.257812 -13.707031 5.9375 -13.375 C 5.613281 -13.050781 5.453125 -12.648438 5.453125 -12.171875 L 5.453125 -9.671875 L 12.21875 -9.671875 L 12.21875 -6.21875 L 5.453125 -6.21875 L 5.453125 0 Z M 1.28125 0 "/></g></g></g><g fill="#000000" fill-opacity="1"><g transform="translate(39.000446, 30.996304)"><g><path d="M 6.671875 0 C 5.597656 0 4.65625 -0.238281 3.84375 -0.71875 C 3.03125 -1.195312 2.398438 -1.832031 1.953125 -2.625 C 1.503906 -3.414062 1.28125 -4.289062 1.28125 -5.25 L 1.28125 -17.34375 L 5.453125 -17.34375 L 5.453125 -4.953125 C 5.453125 -4.554688 5.59375 -4.207031 5.875 -3.90625 C 6.15625 -3.613281 6.5 -3.46875 6.90625 -3.46875 L 11.5 -3.46875 L 11.5 0 Z M 6.671875 0 "/></g></g></g><g fill="#000000" fill-opacity="1"><g transform="translate(49.451249, 30.996304)"><g><path d="M 6.140625 0 C 5.171875 0 4.285156 -0.222656 3.484375 -0.671875 C 2.691406 -1.128906 2.0625 -1.742188 1.59375 -2.515625 C 1.125 -3.285156 0.890625 -4.15625 0.890625 -5.125 C 0.890625 -5.851562 1.050781 -6.535156 1.375 -7.171875 C 1.695312 -7.804688 2.128906 -8.359375 2.671875 -8.828125 C 2.148438 -9.265625 1.734375 -9.789062 1.421875 -10.40625 C 1.117188 -11.019531 0.96875 -11.664062 0.96875 -12.34375 C 0.96875 -13.300781 1.195312 -14.15625 1.65625 -14.90625 C 2.125 -15.65625 2.742188 -16.25 3.515625 -16.6875 C 4.296875 -17.125 5.15625 -17.34375 6.09375 -17.34375 L 13.40625 -17.34375 L 13.40625 -13.875 L 6.734375 -13.875 C 6.421875 -13.875 6.132812 -13.800781 5.875 -13.65625 C 5.613281 -13.507812 5.398438 -13.3125 5.234375 -13.0625 C 5.078125 -12.8125 5 -12.519531 5 -12.1875 C 5 -11.875 5.078125 -11.585938 5.234375 -11.328125 C 5.398438 -11.078125 5.613281 -10.878906 5.875 -10.734375 C 6.132812 -10.597656 6.421875 -10.53125 6.734375 -10.53125 L 12.5625 -10.53125 L 12.5625 -7.0625 L 6.859375 -7.0625 C 6.515625 -7.0625 6.203125 -6.976562 5.921875 -6.8125 C 5.640625 -6.644531 5.414062 -6.429688 5.25 -6.171875 C 5.082031 -5.910156 5 -5.601562 5 -5.25 C 5 -4.925781 5.082031 -4.625 5.25 -4.34375 C 5.414062 -4.070312 5.640625 -3.863281 5.921875 -3.71875 C 6.203125 -3.570312 6.515625 -3.5 6.859375 -3.5 L 13.40625 -3.5 L 13.40625 0 Z M 6.140625 0 "/></g></g></g><g fill="#5271ff" fill-opacity="1"><g transform="translate(62.306636, 30.996304)"><g><path d="M 1.0625 0 L 5.59375 -7.453125 C 4.789062 -7.785156 4.097656 -8.226562 3.515625 -8.78125 C 2.941406 -9.332031 2.492188 -9.992188 2.171875 -10.765625 C 1.847656 -11.546875 1.6875 -12.425781 1.6875 -13.40625 L 1.6875 -17.34375 L 5.84375 -17.34375 L 5.84375 -13.15625 C 5.84375 -12.726562 5.929688 -12.328125 6.109375 -11.953125 C 6.285156 -11.585938 6.53125 -11.285156 6.84375 -11.046875 C 7.164062 -10.804688 7.546875 -10.648438 7.984375 -10.578125 L 12 -17.34375 L 16.625 -17.34375 L 12.09375 -10.03125 C 13 -9.769531 13.789062 -9.359375 14.46875 -8.796875 C 15.144531 -8.234375 15.664062 -7.539062 16.03125 -6.71875 C 16.394531 -5.90625 16.578125 -4.988281 16.578125 -3.96875 L 16.578125 0 L 12.421875 0 L 12.421875 -4.15625 C 12.421875 -4.90625 12.1875 -5.539062 11.71875 -6.0625 C 11.257812 -6.582031 10.613281 -6.847656 9.78125 -6.859375 L 5.703125 0 Z M 1.0625 0 "/></g></g></g><g fill="#000000" fill-opacity="1"><g transform="translate(78.259035, 30.996304)"><g/></g></g><g fill="#000000" fill-opacity="1"><g transform="translate(83.310839, 30.996304)"><g><path d="M 8.328125 0.296875 C 6.953125 0.296875 5.738281 0.0195312 4.6875 -0.53125 C 3.644531 -1.082031 2.828125 -1.878906 2.234375 -2.921875 C 1.640625 -3.960938 1.34375 -5.191406 1.34375 -6.609375 L 1.34375 -17.34375 L 5.421875 -17.34375 L 5.421875 -6.46875 C 5.421875 -5.875 5.535156 -5.335938 5.765625 -4.859375 C 6.003906 -4.378906 6.34375 -4 6.78125 -3.71875 C 7.21875 -3.4375 7.734375 -3.296875 8.328125 -3.296875 C 8.921875 -3.296875 9.429688 -3.4375 9.859375 -3.71875 C 10.285156 -4 10.617188 -4.378906 10.859375 -4.859375 C 11.097656 -5.335938 11.21875 -5.875 11.21875 -6.46875 L 11.21875 -17.34375 L 15.3125 -17.34375 L 15.3125 -6.46875 C 15.3125 -5.875 15.425781 -5.335938 15.65625 -4.859375 C 15.894531 -4.378906 16.234375 -4 16.671875 -3.71875 C 17.109375 -3.4375 17.625 -3.296875 18.21875 -3.296875 C 18.8125 -3.296875 19.328125 -3.4375 19.765625 -3.71875 C 20.203125 -4 20.535156 -4.378906 20.765625 -4.859375 C 20.992188 -5.335938 21.109375 -5.875 21.109375 -6.46875 L 21.109375 -17.34375 L 25.203125 -17.34375 L 25.203125 -6.609375 C 25.203125 -5.191406 24.90625 -3.960938 24.3125 -2.921875 C 23.71875 -1.878906 22.894531 -1.082031 21.84375 -0.53125 C 20.789062 0.0195312 19.582031 0.296875 18.21875 0.296875 C 17.539062 0.296875 16.898438 0.21875 16.296875 0.0625 C 15.691406 -0.09375 15.132812 -0.328125 14.625 -0.640625 C 14.125 -0.953125 13.671875 -1.332031 13.265625 -1.78125 C 12.859375 -1.332031 12.398438 -0.957031 11.890625 -0.65625 C 11.378906 -0.351562 10.828125 -0.117188 10.234375 0.046875 C 9.640625 0.210938 9.003906 0.296875 8.328125 0.296875 Z M 8.328125 0.296875 "/></g></g></g><g fill="#000000" fill-opacity="1"><g transform="translate(108.324066, 30.996304)"><g><path d="M 9.90625 0.328125 C 8.519531 0.328125 7.265625 0.0976562 6.140625 -0.359375 C 5.015625 -0.828125 4.046875 -1.472656 3.234375 -2.296875 C 2.429688 -3.128906 1.8125 -4.085938 1.375 -5.171875 C 0.9375 -6.265625 0.71875 -7.441406 0.71875 -8.703125 C 0.71875 -9.953125 0.9375 -11.125 1.375 -12.21875 C 1.8125 -13.3125 2.429688 -14.265625 3.234375 -15.078125 C 4.035156 -15.898438 5 -16.535156 6.125 -16.984375 C 7.257812 -17.441406 8.519531 -17.671875 9.90625 -17.671875 C 11.28125 -17.671875 12.53125 -17.441406 13.65625 -16.984375 C 14.789062 -16.535156 15.757812 -15.898438 16.5625 -15.078125 C 17.363281 -14.265625 17.988281 -13.304688 18.4375 -12.203125 C 18.882812 -11.109375 19.109375 -9.941406 19.109375 -8.703125 C 19.109375 -7.441406 18.882812 -6.265625 18.4375 -5.171875 C 17.988281 -4.085938 17.363281 -3.128906 16.5625 -2.296875 C 15.757812 -1.472656 14.789062 -0.828125 13.65625 -0.359375 C 12.53125 0.0976562 11.28125 0.328125 9.90625 0.328125 Z M 9.90625 -3.21875 C 10.632812 -3.21875 11.304688 -3.351562 11.921875 -3.625 C 12.546875 -3.90625 13.082031 -4.289062 13.53125 -4.78125 C 13.976562 -5.28125 14.320312 -5.863281 14.5625 -6.53125 C 14.8125 -7.195312 14.9375 -7.921875 14.9375 -8.703125 C 14.9375 -9.472656 14.8125 -10.1875 14.5625 -10.84375 C 14.320312 -11.507812 13.976562 -12.085938 13.53125 -12.578125 C 13.082031 -13.078125 12.546875 -13.460938 11.921875 -13.734375 C 11.304688 -14.015625 10.632812 -14.15625 9.90625 -14.15625 C 9.164062 -14.15625 8.488281 -14.015625 7.875 -13.734375 C 7.269531 -13.460938 6.738281 -13.078125 6.28125 -12.578125 C 5.820312 -12.085938 5.472656 -11.507812 5.234375 -10.84375 C 4.992188 -10.175781 4.875 -9.460938 4.875 -8.703125 C 4.875 -7.921875 4.992188 -7.195312 5.234375 -6.53125 C 5.472656 -5.863281 5.820312 -5.28125 6.28125 -4.78125 C 6.738281 -4.289062 7.269531 -3.90625 7.875 -3.625 C 8.488281 -3.351562 9.164062 -3.21875 9.90625 -3.21875 Z M 9.90625 -3.21875 "/></g></g></g><g fill="#000000" fill-opacity="1"><g transform="translate(126.600935, 30.996304)"><g><path d="M 1.515625 0 L 1.515625 -17.34375 L 9.4375 -17.34375 C 10.613281 -17.34375 11.679688 -17.085938 12.640625 -16.578125 C 13.609375 -16.066406 14.378906 -15.351562 14.953125 -14.4375 C 15.523438 -13.53125 15.8125 -12.484375 15.8125 -11.296875 C 15.8125 -10.191406 15.546875 -9.195312 15.015625 -8.3125 C 14.484375 -7.425781 13.789062 -6.710938 12.9375 -6.171875 L 14.328125 -3.8125 C 14.410156 -3.695312 14.503906 -3.601562 14.609375 -3.53125 C 14.710938 -3.46875 14.859375 -3.4375 15.046875 -3.4375 L 16.578125 -3.4375 L 16.578125 0 L 14.15625 0 C 13.40625 0 12.722656 -0.175781 12.109375 -0.53125 C 11.503906 -0.882812 11.03125 -1.351562 10.6875 -1.9375 L 8.828125 -5.234375 C 8.710938 -5.234375 8.59375 -5.234375 8.46875 -5.234375 C 8.34375 -5.234375 8.210938 -5.234375 8.078125 -5.234375 L 5.671875 -5.234375 L 5.671875 0 Z M 5.671875 -8.671875 L 8.96875 -8.671875 C 9.445312 -8.671875 9.890625 -8.773438 10.296875 -8.984375 C 10.710938 -9.191406 11.039062 -9.488281 11.28125 -9.875 C 11.519531 -10.257812 11.640625 -10.726562 11.640625 -11.28125 C 11.640625 -11.820312 11.515625 -12.285156 11.265625 -12.671875 C 11.023438 -13.066406 10.703125 -13.363281 10.296875 -13.5625 C 9.890625 -13.769531 9.445312 -13.875 8.96875 -13.875 L 5.671875 -13.875 Z M 5.671875 -8.671875 "/></g></g></g><g fill="#000000" fill-opacity="1"><g transform="translate(142.029711, 30.996304)"><g><path d="M 1.515625 0 L 1.515625 -17.34375 L 5.671875 -17.34375 L 5.671875 -10.328125 L 8.546875 -10.328125 C 9.023438 -10.328125 9.46875 -10.425781 9.875 -10.625 C 10.28125 -10.820312 10.597656 -11.117188 10.828125 -11.515625 C 11.054688 -11.921875 11.171875 -12.382812 11.171875 -12.90625 L 11.171875 -17.34375 L 15.34375 -17.34375 L 15.34375 -12.890625 C 15.34375 -11.773438 15.078125 -10.78125 14.546875 -9.90625 C 14.015625 -9.03125 13.320312 -8.332031 12.46875 -7.8125 L 14.34375 -3.84375 C 14.394531 -3.707031 14.484375 -3.601562 14.609375 -3.53125 C 14.734375 -3.46875 14.867188 -3.4375 15.015625 -3.4375 L 16.578125 -3.4375 L 16.578125 0 L 14.171875 0 C 13.265625 0 12.53125 -0.171875 11.96875 -0.515625 C 11.40625 -0.867188 10.976562 -1.347656 10.6875 -1.953125 L 8.328125 -6.859375 C 8.191406 -6.859375 8.066406 -6.859375 7.953125 -6.859375 C 7.835938 -6.859375 7.710938 -6.859375 7.578125 -6.859375 L 5.671875 -6.859375 L 5.671875 0 Z M 1.515625 0 "/></g></g></g><g clip-path="url(#25cd30c64f)"><path fill="#000000" d="M 34.234375 1.820312 C 34.117188 1.535156 33.855469 1.359375 33.546875 1.359375 L 19.433594 1.359375 C 18.554688 1.359375 17.851562 2.070312 17.851562 2.9375 L 17.851562 5.269531 L 15.414062 5.269531 C 14.535156 5.269531 13.835938 5.980469 13.835938 6.851562 L 13.835938 25.488281 C 13.835938 26.335938 13.679688 27.144531 13.394531 27.878906 C 12.695312 28.128906 11.945312 28.261719 11.160156 28.261719 C 10.269531 28.261719 9.402344 28.082031 8.582031 27.75 C 8.355469 27.652344 8.09375 27.703125 7.925781 27.867188 L 3.980469 31.730469 C 3.835938 31.875 3.765625 32.074219 3.8125 32.277344 C 3.847656 32.480469 3.992188 32.648438 4.167969 32.71875 C 5.109375 33.109375 6.121094 33.300781 7.140625 33.300781 C 10.28125 33.300781 13.003906 31.433594 14.238281 28.757812 C 17.019531 27.558594 18.96875 24.800781 18.96875 21.589844 L 18.96875 18.890625 L 22.0625 18.890625 C 22.25 18.890625 22.441406 18.820312 22.585938 18.679688 L 26.222656 15.136719 C 26.4375 14.921875 26.507812 14.601562 26.386719 14.328125 C 26.269531 14.042969 26.007812 13.863281 25.699219 13.863281 L 18.980469 13.863281 L 18.980469 6.386719 L 29.929688 6.386719 C 30.121094 6.386719 30.3125 6.316406 30.453125 6.171875 L 34.09375 2.628906 C 34.28125 2.414062 34.355469 2.105469 34.234375 1.820312 Z M 7.140625 32.183594 C 6.535156 32.183594 5.929688 32.101562 5.359375 31.945312 L 8.460938 28.914062 C 9.316406 29.234375 10.222656 29.390625 11.148438 29.390625 C 11.671875 29.390625 12.183594 29.34375 12.683594 29.234375 C 11.480469 31.019531 9.449219 32.183594 7.140625 32.183594 Z M 17.851562 21.578125 C 17.851562 23.945312 16.617188 26.023438 14.761719 27.214844 C 14.894531 26.65625 14.953125 26.085938 14.953125 25.488281 L 14.953125 18.878906 L 17.851562 18.878906 Z M 17.851562 17.761719 L 14.953125 17.761719 L 14.953125 6.851562 C 14.953125 6.589844 15.167969 6.386719 15.414062 6.386719 L 17.839844 6.386719 L 17.839844 17.761719 Z M 24.773438 14.96875 L 21.90625 17.761719 L 18.96875 17.761719 L 18.96875 14.96875 Z M 29.765625 5.269531 L 18.96875 5.269531 L 18.96875 2.9375 C 18.96875 2.675781 19.183594 2.476562 19.433594 2.476562 L 32.628906 2.476562 Z M 29.765625 5.269531 " fill-opacity="1" fill-rule="nonzero"/></g><g fill="#000000" fill-opacity="1"><g transform="translate(69.554161, 7.315093)"><g><path d="M 0.546875 0 L 0.546875 -6.265625 L 2.84375 -6.265625 C 3.507812 -6.265625 4.082031 -6.128906 4.5625 -5.859375 C 5.050781 -5.597656 5.429688 -5.226562 5.703125 -4.75 C 5.972656 -4.28125 6.109375 -3.742188 6.109375 -3.140625 C 6.109375 -2.523438 5.972656 -1.984375 5.703125 -1.515625 C 5.429688 -1.046875 5.050781 -0.675781 4.5625 -0.40625 C 4.082031 -0.132812 3.507812 0 2.84375 0 Z M 2.046875 -1.25 L 2.8125 -1.25 C 3.15625 -1.25 3.460938 -1.320312 3.734375 -1.46875 C 4.003906 -1.625 4.21875 -1.84375 4.375 -2.125 C 4.53125 -2.40625 4.609375 -2.742188 4.609375 -3.140625 C 4.609375 -3.523438 4.53125 -3.859375 4.375 -4.140625 C 4.21875 -4.421875 4.003906 -4.632812 3.734375 -4.78125 C 3.460938 -4.9375 3.15625 -5.015625 2.8125 -5.015625 L 2.046875 -5.015625 Z M 2.046875 -1.25 "/></g></g></g><g fill="#000000" fill-opacity="1"><g transform="translate(75.376422, 7.315093)"><g><path d="M 0 0 L 2.03125 -5.546875 C 2.132812 -5.816406 2.300781 -6.019531 2.53125 -6.15625 C 2.769531 -6.300781 3.035156 -6.375 3.328125 -6.375 C 3.617188 -6.375 3.878906 -6.304688 4.109375 -6.171875 C 4.335938 -6.035156 4.503906 -5.828125 4.609375 -5.546875 L 6.65625 0 L 5.03125 0 L 4.640625 -1.203125 L 1.984375 -1.203125 L 1.5625 0 Z M 2.359375 -2.453125 L 4.25 -2.453125 L 3.453125 -4.953125 C 3.441406 -4.984375 3.425781 -5.003906 3.40625 -5.015625 C 3.382812 -5.035156 3.359375 -5.046875 3.328125 -5.046875 C 3.296875 -5.046875 3.269531 -5.035156 3.25 -5.015625 C 3.226562 -5.003906 3.21875 -4.984375 3.21875 -4.953125 Z M 2.359375 -2.453125 "/></g></g></g><g fill="#000000" fill-opacity="1"><g transform="translate(81.485316, 7.315093)"><g><path d="M 0.578125 0 L 0.578125 -1.25 L 3.265625 -1.25 C 3.378906 -1.25 3.484375 -1.28125 3.578125 -1.34375 C 3.671875 -1.40625 3.742188 -1.484375 3.796875 -1.578125 C 3.859375 -1.671875 3.890625 -1.773438 3.890625 -1.890625 C 3.890625 -2.003906 3.859375 -2.109375 3.796875 -2.203125 C 3.742188 -2.304688 3.671875 -2.382812 3.578125 -2.4375 C 3.484375 -2.5 3.378906 -2.53125 3.265625 -2.53125 L 2.296875 -2.53125 C 1.929688 -2.53125 1.597656 -2.601562 1.296875 -2.75 C 0.992188 -2.894531 0.753906 -3.101562 0.578125 -3.375 C 0.410156 -3.65625 0.328125 -3.988281 0.328125 -4.375 C 0.328125 -4.757812 0.410156 -5.09375 0.578125 -5.375 C 0.742188 -5.65625 0.96875 -5.875 1.25 -6.03125 C 1.539062 -6.1875 1.859375 -6.265625 2.203125 -6.265625 L 4.96875 -6.265625 L 4.96875 -5.015625 L 2.375 -5.015625 C 2.269531 -5.015625 2.171875 -4.988281 2.078125 -4.9375 C 1.984375 -4.882812 1.910156 -4.8125 1.859375 -4.71875 C 1.816406 -4.625 1.796875 -4.523438 1.796875 -4.421875 C 1.796875 -4.316406 1.816406 -4.21875 1.859375 -4.125 C 1.910156 -4.039062 1.984375 -3.972656 2.078125 -3.921875 C 2.171875 -3.867188 2.269531 -3.84375 2.375 -3.84375 L 3.390625 -3.84375 C 3.785156 -3.84375 4.128906 -3.765625 4.421875 -3.609375 C 4.722656 -3.460938 4.953125 -3.25 5.109375 -2.96875 C 5.273438 -2.695312 5.359375 -2.378906 5.359375 -2.015625 C 5.359375 -1.585938 5.273438 -1.222656 5.109375 -0.921875 C 4.941406 -0.617188 4.710938 -0.390625 4.421875 -0.234375 C 4.140625 -0.078125 3.820312 0 3.46875 0 Z M 0.578125 0 "/></g></g></g><g fill="#000000" fill-opacity="1"><g transform="translate(86.590991, 7.315093)"><g><path d="M 0.546875 0 L 0.546875 -6.265625 L 2.046875 -6.265625 L 2.046875 -3.8125 L 4.5 -3.8125 L 4.5 -6.265625 L 6 -6.265625 L 6 0 L 4.5 0 L 4.5 -2.546875 L 2.046875 -2.546875 L 2.046875 0 Z M 0.546875 0 "/></g></g></g><g fill="#000000" fill-opacity="1"><g transform="translate(92.5924, 7.315093)"><g><path d="M 0.546875 0 L 0.546875 -6.265625 L 4.1875 -6.265625 C 4.488281 -6.265625 4.765625 -6.195312 5.015625 -6.0625 C 5.273438 -5.925781 5.476562 -5.734375 5.625 -5.484375 C 5.78125 -5.242188 5.859375 -4.957031 5.859375 -4.625 C 5.859375 -4.425781 5.820312 -4.234375 5.75 -4.046875 C 5.675781 -3.867188 5.570312 -3.710938 5.4375 -3.578125 C 5.300781 -3.441406 5.148438 -3.332031 4.984375 -3.25 C 5.179688 -3.164062 5.359375 -3.046875 5.515625 -2.890625 C 5.671875 -2.734375 5.796875 -2.550781 5.890625 -2.34375 C 5.984375 -2.144531 6.03125 -1.929688 6.03125 -1.703125 C 6.03125 -1.359375 5.953125 -1.054688 5.796875 -0.796875 C 5.640625 -0.546875 5.425781 -0.347656 5.15625 -0.203125 C 4.894531 -0.0664062 4.601562 0 4.28125 0 Z M 2.046875 -1.25 L 3.890625 -1.25 C 4.015625 -1.25 4.125 -1.273438 4.21875 -1.328125 C 4.320312 -1.390625 4.40625 -1.472656 4.46875 -1.578125 C 4.53125 -1.679688 4.5625 -1.789062 4.5625 -1.90625 C 4.5625 -2.03125 4.53125 -2.140625 4.46875 -2.234375 C 4.40625 -2.335938 4.320312 -2.414062 4.21875 -2.46875 C 4.125 -2.53125 4.015625 -2.5625 3.890625 -2.5625 L 2.046875 -2.5625 Z M 2.046875 -3.765625 L 3.75 -3.765625 C 3.863281 -3.765625 3.96875 -3.789062 4.0625 -3.84375 C 4.15625 -3.90625 4.226562 -3.984375 4.28125 -4.078125 C 4.332031 -4.171875 4.359375 -4.273438 4.359375 -4.390625 C 4.359375 -4.503906 4.332031 -4.609375 4.28125 -4.703125 C 4.226562 -4.796875 4.15625 -4.867188 4.0625 -4.921875 C 3.96875 -4.984375 3.863281 -5.015625 3.75 -5.015625 L 2.046875 -5.015625 Z M 2.046875 -3.765625 "/></g></g></g><g fill="#000000" fill-opacity="1"><g transform="translate(98.405709, 7.315093)"><g><path d="M 3.578125 0.109375 C 3.078125 0.109375 2.625 0.0234375 2.21875 -0.140625 C 1.8125 -0.304688 1.460938 -0.535156 1.171875 -0.828125 C 0.878906 -1.128906 0.65625 -1.476562 0.5 -1.875 C 0.34375 -2.269531 0.265625 -2.691406 0.265625 -3.140625 C 0.265625 -3.597656 0.34375 -4.019531 0.5 -4.40625 C 0.65625 -4.800781 0.878906 -5.144531 1.171875 -5.4375 C 1.460938 -5.738281 1.8125 -5.972656 2.21875 -6.140625 C 2.625 -6.304688 3.078125 -6.390625 3.578125 -6.390625 C 4.078125 -6.390625 4.53125 -6.304688 4.9375 -6.140625 C 5.34375 -5.972656 5.691406 -5.738281 5.984375 -5.4375 C 6.273438 -5.144531 6.5 -4.800781 6.65625 -4.40625 C 6.820312 -4.007812 6.90625 -3.585938 6.90625 -3.140625 C 6.90625 -2.691406 6.820312 -2.269531 6.65625 -1.875 C 6.5 -1.476562 6.273438 -1.128906 5.984375 -0.828125 C 5.691406 -0.535156 5.34375 -0.304688 4.9375 -0.140625 C 4.53125 0.0234375 4.078125 0.109375 3.578125 0.109375 Z M 3.578125 -1.15625 C 3.835938 -1.15625 4.078125 -1.203125 4.296875 -1.296875 C 4.523438 -1.398438 4.71875 -1.539062 4.875 -1.71875 C 5.039062 -1.90625 5.171875 -2.117188 5.265625 -2.359375 C 5.359375 -2.597656 5.40625 -2.859375 5.40625 -3.140625 C 5.40625 -3.421875 5.359375 -3.679688 5.265625 -3.921875 C 5.171875 -4.160156 5.039062 -4.367188 4.875 -4.546875 C 4.71875 -4.722656 4.523438 -4.859375 4.296875 -4.953125 C 4.078125 -5.054688 3.835938 -5.109375 3.578125 -5.109375 C 3.304688 -5.109375 3.0625 -5.054688 2.84375 -4.953125 C 2.625 -4.859375 2.429688 -4.722656 2.265625 -4.546875 C 2.097656 -4.367188 1.972656 -4.15625 1.890625 -3.90625 C 1.804688 -3.664062 1.765625 -3.410156 1.765625 -3.140625 C 1.765625 -2.859375 1.804688 -2.597656 1.890625 -2.359375 C 1.972656 -2.117188 2.097656 -1.90625 2.265625 -1.71875 C 2.429688 -1.539062 2.625 -1.398438 2.84375 -1.296875 C 3.0625 -1.203125 3.304688 -1.15625 3.578125 -1.15625 Z M 3.578125 -1.15625 "/></g></g></g><g fill="#000000" fill-opacity="1"><g transform="translate(105.016221, 7.315093)"><g><path d="M 0 0 L 2.03125 -5.546875 C 2.132812 -5.816406 2.300781 -6.019531 2.53125 -6.15625 C 2.769531 -6.300781 3.035156 -6.375 3.328125 -6.375 C 3.617188 -6.375 3.878906 -6.304688 4.109375 -6.171875 C 4.335938 -6.035156 4.503906 -5.828125 4.609375 -5.546875 L 6.65625 0 L 5.03125 0 L 4.640625 -1.203125 L 1.984375 -1.203125 L 1.5625 0 Z M 2.359375 -2.453125 L 4.25 -2.453125 L 3.453125 -4.953125 C 3.441406 -4.984375 3.425781 -5.003906 3.40625 -5.015625 C 3.382812 -5.035156 3.359375 -5.046875 3.328125 -5.046875 C 3.296875 -5.046875 3.269531 -5.035156 3.25 -5.015625 C 3.226562 -5.003906 3.21875 -4.984375 3.21875 -4.953125 Z M 2.359375 -2.453125 "/></g></g></g><g fill="#000000" fill-opacity="1"><g transform="translate(111.125113, 7.315093)"><g><path d="M 0.546875 0 L 0.546875 -6.265625 L 3.40625 -6.265625 C 3.832031 -6.265625 4.21875 -6.171875 4.5625 -5.984375 C 4.914062 -5.804688 5.195312 -5.550781 5.40625 -5.21875 C 5.613281 -4.894531 5.71875 -4.515625 5.71875 -4.078125 C 5.71875 -3.679688 5.617188 -3.320312 5.421875 -3 C 5.234375 -2.6875 4.984375 -2.429688 4.671875 -2.234375 L 5.171875 -1.375 C 5.203125 -1.332031 5.238281 -1.300781 5.28125 -1.28125 C 5.320312 -1.257812 5.375 -1.25 5.4375 -1.25 L 5.984375 -1.25 L 5.984375 0 L 5.109375 0 C 4.835938 0 4.59375 -0.0625 4.375 -0.1875 C 4.15625 -0.320312 3.984375 -0.492188 3.859375 -0.703125 L 3.1875 -1.890625 C 3.144531 -1.890625 3.097656 -1.890625 3.046875 -1.890625 C 3.003906 -1.890625 2.960938 -1.890625 2.921875 -1.890625 L 2.046875 -1.890625 L 2.046875 0 Z M 2.046875 -3.140625 L 3.234375 -3.140625 C 3.410156 -3.140625 3.570312 -3.175781 3.71875 -3.25 C 3.875 -3.320312 3.992188 -3.425781 4.078125 -3.5625 C 4.160156 -3.707031 4.203125 -3.878906 4.203125 -4.078125 C 4.203125 -4.273438 4.15625 -4.441406 4.0625 -4.578125 C 3.976562 -4.722656 3.863281 -4.832031 3.71875 -4.90625 C 3.570312 -4.976562 3.410156 -5.015625 3.234375 -5.015625 L 2.046875 -5.015625 Z M 2.046875 -3.140625 "/></g></g></g><g fill="#000000" fill-opacity="1"><g transform="translate(116.705525, 7.315093)"><g><path d="M 0.546875 0 L 0.546875 -6.265625 L 2.84375 -6.265625 C 3.507812 -6.265625 4.082031 -6.128906 4.5625 -5.859375 C 5.050781 -5.597656 5.429688 -5.226562 5.703125 -4.75 C 5.972656 -4.28125 6.109375 -3.742188 6.109375 -3.140625 C 6.109375 -2.523438 5.972656 -1.984375 5.703125 -1.515625 C 5.429688 -1.046875 5.050781 -0.675781 4.5625 -0.40625 C 4.082031 -0.132812 3.507812 0 2.84375 0 Z M 2.046875 -1.25 L 2.8125 -1.25 C 3.15625 -1.25 3.460938 -1.320312 3.734375 -1.46875 C 4.003906 -1.625 4.21875 -1.84375 4.375 -2.125 C 4.53125 -2.40625 4.609375 -2.742188 4.609375 -3.140625 C 4.609375 -3.523438 4.53125 -3.859375 4.375 -4.140625 C 4.21875 -4.421875 4.003906 -4.632812 3.734375 -4.78125 C 3.460938 -4.9375 3.15625 -5.015625 2.8125 -5.015625 L 2.046875 -5.015625 Z M 2.046875 -1.25 "/></g></g></g><g fill="#000000" fill-opacity="1"><g transform="translate(122.527787, 7.315093)"><g/></g></g><g fill="#000000" fill-opacity="1"><g transform="translate(124.355083, 7.315093)"><g><path d="M 0.546875 0 L 0.546875 -6.265625 L 3.234375 -6.265625 C 3.660156 -6.265625 4.046875 -6.164062 4.390625 -5.96875 C 4.742188 -5.78125 5.023438 -5.519531 5.234375 -5.1875 C 5.441406 -4.851562 5.546875 -4.460938 5.546875 -4.015625 C 5.546875 -3.578125 5.441406 -3.1875 5.234375 -2.84375 C 5.023438 -2.5 4.742188 -2.226562 4.390625 -2.03125 C 4.046875 -1.84375 3.660156 -1.75 3.234375 -1.75 L 2.046875 -1.75 L 2.046875 0 Z M 2.046875 -3.015625 L 3.078125 -3.015625 C 3.253906 -3.015625 3.410156 -3.050781 3.546875 -3.125 C 3.691406 -3.207031 3.804688 -3.320312 3.890625 -3.46875 C 3.984375 -3.625 4.03125 -3.804688 4.03125 -4.015625 C 4.03125 -4.222656 3.984375 -4.398438 3.890625 -4.546875 C 3.804688 -4.691406 3.691406 -4.804688 3.546875 -4.890625 C 3.398438 -4.972656 3.242188 -5.015625 3.078125 -5.015625 L 2.046875 -5.015625 Z M 2.046875 -3.015625 "/></g></g></g><g fill="#000000" fill-opacity="1"><g transform="translate(129.577205, 7.315093)"><g><path d="M 0 0 L 2.03125 -5.546875 C 2.132812 -5.816406 2.300781 -6.019531 2.53125 -6.15625 C 2.769531 -6.300781 3.035156 -6.375 3.328125 -6.375 C 3.617188 -6.375 3.878906 -6.304688 4.109375 -6.171875 C 4.335938 -6.035156 4.503906 -5.828125 4.609375 -5.546875 L 6.65625 0 L 5.03125 0 L 4.640625 -1.203125 L 1.984375 -1.203125 L 1.5625 0 Z M 2.359375 -2.453125 L 4.25 -2.453125 L 3.453125 -4.953125 C 3.441406 -4.984375 3.425781 -5.003906 3.40625 -5.015625 C 3.382812 -5.035156 3.359375 -5.046875 3.328125 -5.046875 C 3.296875 -5.046875 3.269531 -5.035156 3.25 -5.015625 C 3.226562 -5.003906 3.21875 -4.984375 3.21875 -4.953125 Z M 2.359375 -2.453125 "/></g></g></g><g fill="#000000" fill-opacity="1"><g transform="translate(135.686097, 7.315093)"><g><path d="M 4.953125 0.109375 C 4.578125 0.109375 4.238281 0.0234375 3.9375 -0.140625 C 3.644531 -0.304688 3.410156 -0.535156 3.234375 -0.828125 C 3.066406 -1.117188 2.984375 -1.445312 2.984375 -1.8125 L 2.984375 -4.5625 C 2.984375 -4.65625 2.957031 -4.738281 2.90625 -4.8125 C 2.863281 -4.894531 2.800781 -4.957031 2.71875 -5 C 2.644531 -5.050781 2.5625 -5.078125 2.46875 -5.078125 C 2.363281 -5.078125 2.273438 -5.050781 2.203125 -5 C 2.128906 -4.957031 2.066406 -4.894531 2.015625 -4.8125 C 1.972656 -4.738281 1.953125 -4.65625 1.953125 -4.5625 L 1.953125 0 L 0.484375 0 L 0.484375 -4.453125 C 0.484375 -4.828125 0.566406 -5.15625 0.734375 -5.4375 C 0.910156 -5.726562 1.144531 -5.957031 1.4375 -6.125 C 1.738281 -6.289062 2.082031 -6.375 2.46875 -6.375 C 2.84375 -6.375 3.179688 -6.289062 3.484375 -6.125 C 3.785156 -5.957031 4.019531 -5.726562 4.1875 -5.4375 C 4.363281 -5.15625 4.453125 -4.828125 4.453125 -4.453125 L 4.453125 -1.703125 C 4.453125 -1.609375 4.472656 -1.519531 4.515625 -1.4375 C 4.566406 -1.363281 4.628906 -1.300781 4.703125 -1.25 C 4.773438 -1.207031 4.859375 -1.1875 4.953125 -1.1875 C 5.046875 -1.1875 5.132812 -1.207031 5.21875 -1.25 C 5.300781 -1.300781 5.363281 -1.363281 5.40625 -1.4375 C 5.457031 -1.519531 5.484375 -1.609375 5.484375 -1.703125 L 5.484375 -6.265625 L 6.9375 -6.265625 L 6.9375 -1.8125 C 6.9375 -1.445312 6.847656 -1.117188 6.671875 -0.828125 C 6.503906 -0.535156 6.269531 -0.304688 5.96875 -0.140625 C 5.675781 0.0234375 5.335938 0.109375 4.953125 0.109375 Z M 4.953125 0.109375 "/></g></g></g><g fill="#000000" fill-opacity="1"><g transform="translate(142.574276, 7.315093)"><g><path d="M 4.953125 0.109375 C 4.578125 0.109375 4.238281 0.0234375 3.9375 -0.140625 C 3.644531 -0.304688 3.410156 -0.535156 3.234375 -0.828125 C 3.066406 -1.117188 2.984375 -1.445312 2.984375 -1.8125 L 2.984375 -4.5625 C 2.984375 -4.65625 2.957031 -4.738281 2.90625 -4.8125 C 2.863281 -4.894531 2.800781 -4.957031 2.71875 -5 C 2.644531 -5.050781 2.5625 -5.078125 2.46875 -5.078125 C 2.363281 -5.078125 2.273438 -5.050781 2.203125 -5 C 2.128906 -4.957031 2.066406 -4.894531 2.015625 -4.8125 C 1.972656 -4.738281 1.953125 -4.65625 1.953125 -4.5625 L 1.953125 0 L 0.484375 0 L 0.484375 -4.453125 C 0.484375 -4.828125 0.566406 -5.15625 0.734375 -5.4375 C 0.910156 -5.726562 1.144531 -5.957031 1.4375 -6.125 C 1.738281 -6.289062 2.082031 -6.375 2.46875 -6.375 C 2.84375 -6.375 3.179688 -6.289062 3.484375 -6.125 C 3.785156 -5.957031 4.019531 -5.726562 4.1875 -5.4375 C 4.363281 -5.15625 4.453125 -4.828125 4.453125 -4.453125 L 4.453125 -1.703125 C 4.453125 -1.609375 4.472656 -1.519531 4.515625 -1.4375 C 4.566406 -1.363281 4.628906 -1.300781 4.703125 -1.25 C 4.773438 -1.207031 4.859375 -1.1875 4.953125 -1.1875 C 5.046875 -1.1875 5.132812 -1.207031 5.21875 -1.25 C 5.300781 -1.300781 5.363281 -1.363281 5.40625 -1.4375 C 5.457031 -1.519531 5.484375 -1.609375 5.484375 -1.703125 L 5.484375 -6.265625 L 6.9375 -6.265625 L 6.9375 -1.8125 C 6.9375 -1.445312 6.847656 -1.117188 6.671875 -0.828125 C 6.503906 -0.535156 6.269531 -0.304688 5.96875 -0.140625 C 5.675781 0.0234375 5.335938 0.109375 4.953125 0.109375 Z M 4.953125 0.109375 "/></g></g></g><g fill="#000000" fill-opacity="1"><g transform="translate(149.462455, 7.315093)"><g><path d="M 0 0 L 2.03125 -5.546875 C 2.132812 -5.816406 2.300781 -6.019531 2.53125 -6.15625 C 2.769531 -6.300781 3.035156 -6.375 3.328125 -6.375 C 3.617188 -6.375 3.878906 -6.304688 4.109375 -6.171875 C 4.335938 -6.035156 4.503906 -5.828125 4.609375 -5.546875 L 6.65625 0 L 5.03125 0 L 4.640625 -1.203125 L 1.984375 -1.203125 L 1.5625 0 Z M 2.359375 -2.453125 L 4.25 -2.453125 L 3.453125 -4.953125 C 3.441406 -4.984375 3.425781 -5.003906 3.40625 -5.015625 C 3.382812 -5.035156 3.359375 -5.046875 3.328125 -5.046875 C 3.296875 -5.046875 3.269531 -5.035156 3.25 -5.015625 C 3.226562 -5.003906 3.21875 -4.984375 3.21875 -4.953125 Z M 2.359375 -2.453125 "/></g></g></g><g fill="#000000" fill-opacity="1"><g transform="translate(155.571348, 7.315093)"><g><path d="M 2.40625 0 C 2.019531 0 1.679688 -0.0820312 1.390625 -0.25 C 1.097656 -0.425781 0.867188 -0.65625 0.703125 -0.9375 C 0.546875 -1.226562 0.46875 -1.546875 0.46875 -1.890625 L 0.46875 -6.265625 L 1.96875 -6.265625 L 1.96875 -1.796875 C 1.96875 -1.648438 2.019531 -1.519531 2.125 -1.40625 C 2.226562 -1.300781 2.351562 -1.25 2.5 -1.25 L 4.15625 -1.25 L 4.15625 0 Z M 2.40625 0 "/></g></g></g><g fill="#000000" fill-opacity="1"><g transform="translate(159.359985, 7.315093)"><g/></g></g></svg>