<?xml version="1.0" encoding="UTF-8"?>
<svg version="1.1" xmlns="http://www.w3.org/2000/svg" width="64" height="64">
<path d="M0 0 C0.91894043 0.40605469 1.83788086 0.81210938 2.78466797 1.23046875 C3.93080566 1.75253906 5.07694336 2.27460937 6.2578125 2.8125 C9.9290625 4.4625 13.6003125 6.1125 17.3828125 7.8125 C17.3828125 23.6525 17.3828125 39.4925 17.3828125 55.8125 C0.2228125 55.8125 -16.9371875 55.8125 -34.6171875 55.8125 C-34.6171875 39.9725 -34.6171875 24.1325 -34.6171875 7.8125 C-30.9459375 6.1625 -27.2746875 4.5125 -23.4921875 2.8125 C-22.3460498 2.29042969 -21.19991211 1.76835938 -20.01904297 1.23046875 C-19.10010254 0.82441406 -18.18116211 0.41835937 -17.234375 0 C-16.30222168 -0.41894531 -15.37006836 -0.83789062 -14.40966797 -1.26953125 C-8.99974358 -3.0479292 -5.10362039 -2.29376197 0 0 Z " fill="#0171AE" transform="translate(40.6171875,5.1875)"/>
<path d="M0 0 C-0.97712354 2.17973712 -1.75099769 3.77622509 -3.54223633 5.38598633 C-5.33512226 7.37104225 -5.4124917 8.37227926 -5.51171875 11.01171875 C-5.54716797 11.76904297 -5.58261719 12.52636719 -5.61914062 13.30664062 C-5.64169922 14.09232422 -5.66425781 14.87800781 -5.6875 15.6875 C-5.72166016 16.48478516 -5.75582031 17.28207031 -5.79101562 18.10351562 C-5.87338104 20.06851904 -5.93837067 22.03423696 -6 24 C-3.36 24 -0.72 24 2 24 C2 22.68 2 21.36 2 20 C3.32 20 4.64 20 6 20 C6.33 18.35 6.66 16.7 7 15 C10.96 15 14.92 15 19 15 C19.33 16.65 19.66 18.3 20 20 C21.65 20 23.3 20 25 20 C25 21.32 25 22.64 25 24 C26.32 24 27.64 24 29 24 C29 22.35 29 20.7 29 19 C30.32 19 31.64 19 33 19 C33 20.65 33 22.3 33 24 C33.99 24 34.98 24 36 24 C36 24.66 36 25.32 36 26 C35.34 26 34.68 26 34 26 C34 33.59 34 41.18 34 49 C20.14 49 6.28 49 -8 49 C-8 41.41 -8 33.82 -8 26 C-8.66 26 -9.32 26 -10 26 C-10 25.34 -10 24.68 -10 24 C-9.34 24 -8.68 24 -8 24 C-8.06960938 22.85402344 -8.13921875 21.70804688 -8.2109375 20.52734375 C-8.79748509 6.71612341 -8.79748509 6.71612341 -5.125 2.4375 C-2 0 -2 0 0 0 Z " fill="#0070AE" transform="translate(19,12)"/>
<path d="M0 0 C-0.97712354 2.17973712 -1.75099769 3.77622509 -3.54223633 5.38598633 C-5.33512226 7.37104225 -5.4124917 8.37227926 -5.51171875 11.01171875 C-5.54716797 11.76904297 -5.58261719 12.52636719 -5.61914062 13.30664062 C-5.64169922 14.09232422 -5.66425781 14.87800781 -5.6875 15.6875 C-5.72166016 16.48478516 -5.75582031 17.28207031 -5.79101562 18.10351562 C-5.87338104 20.06851904 -5.93837067 22.03423696 -6 24 C-3.36 24 -0.72 24 2 24 C2 22.68 2 21.36 2 20 C3.32 20 4.64 20 6 20 C6.33 18.35 6.66 16.7 7 15 C10.96 15 14.92 15 19 15 C19.33 16.65 19.66 18.3 20 20 C21.65 20 23.3 20 25 20 C25 21.32 25 22.64 25 24 C26.32 24 27.64 24 29 24 C29 22.35 29 20.7 29 19 C30.32 19 31.64 19 33 19 C33 20.65 33 22.3 33 24 C33.99 24 34.98 24 36 24 C36 24.66 36 25.32 36 26 C35.34 26 34.68 26 34 26 C34 33.59 34 41.18 34 49 C33.34 49 32.68 49 32 49 C32 41.41 32 33.82 32 26 C19.46 26 6.92 26 -6 26 C-6 33.59 -6 41.18 -6 49 C-6.66 49 -7.32 49 -8 49 C-8 41.41 -8 33.82 -8 26 C-8.66 26 -9.32 26 -10 26 C-10 25.34 -10 24.68 -10 24 C-9.34 24 -8.68 24 -8 24 C-8.06960938 22.85402344 -8.13921875 21.70804688 -8.2109375 20.52734375 C-8.79748509 6.71612341 -8.79748509 6.71612341 -5.125 2.4375 C-2 0 -2 0 0 0 Z " fill="#E0DCDC" transform="translate(19,12)"/>
<path d="M0 0 C8.58 0 17.16 0 26 0 C26 1.32 26 2.64 26 4 C21.38 4.33 16.76 4.66 12 5 C12.33 6.32 12.66 7.64 13 9 C14.32 9 15.64 9 17 9 C17 13.62 17 18.24 17 23 C11.39 23 5.78 23 0 23 C0 15.41 0 7.82 0 0 Z " fill="#0070AE" transform="translate(13,38)"/>
<path d="M0 0 C1.67542976 0.28604898 3.34385343 0.61781233 5 1 C4.9071875 1.66386719 4.814375 2.32773438 4.71875 3.01171875 C4.48619836 5.85632364 4.41407883 8.19964145 5 11 C6.95103738 12.7542222 8.8724271 13.74961195 11.21875 14.90625 C11.8065625 15.2671875 12.394375 15.628125 13 16 C13.5 18.8125 13.5 18.8125 13 21 C11.68 21 10.36 21 9 21 C8.67 19.68 8.34 18.36 8 17 C4.04 17 0.08 17 -4 17 C-4.33 18.32 -4.66 19.64 -5 21 C-6.32 21 -7.64 21 -9 21 C-9.5 18.8125 -9.5 18.8125 -9 16 C-7.21875 14.90625 -7.21875 14.90625 -5 13.8125 C-2.7417973 12.68884604 -2.7417973 12.68884604 -1 11 C-0.45060991 8.22709412 -0.54647992 5.91660887 -0.81640625 3.109375 C-0.87699219 2.41328125 -0.93757813 1.7171875 -1 1 C-0.67 0.67 -0.34 0.34 0 0 Z " fill="#09AF79" transform="translate(30,11)"/>
<path d="M0 0 C1.93166016 0.01740234 1.93166016 0.01740234 3.90234375 0.03515625 C5.19269531 0.04417969 6.48304687 0.05320313 7.8125 0.0625 C8.81152344 0.07410156 9.81054688 0.08570313 10.83984375 0.09765625 C11.16984375 1.74765625 11.49984375 3.39765625 11.83984375 5.09765625 C10.17317708 5.09765625 8.50651042 5.09765625 6.83984375 5.09765625 C6.50984375 9.71765625 6.17984375 14.33765625 5.83984375 19.09765625 C4.51984375 19.09765625 3.19984375 19.09765625 1.83984375 19.09765625 C1.50984375 14.47765625 1.17984375 9.85765625 0.83984375 5.09765625 C-0.48015625 5.42765625 -1.80015625 5.75765625 -3.16015625 6.09765625 C-3.54234392 4.44150968 -3.87410727 2.77308601 -4.16015625 1.09765625 C-3.16015625 0.09765625 -3.16015625 0.09765625 0 0 Z " fill="#54595A" transform="translate(28.16015625,41.90234375)"/>
<path d="M0 0 C2 2 2 2 2.3125 4.9375 C2 8 2 8 0.875 9.875 C-1.91106042 11.54663625 -3.81988862 11.46376624 -7 11 C-9.35210784 8.88310295 -9.91810953 7.55958485 -10.375 4.4375 C-10 2 -10 2 -8.9375 0.125 C-5.82785011 -1.68060316 -3.38260527 -0.79952488 0 0 Z " fill="#1DB989" transform="translate(51,15)"/>
<path d="M0 0 C0.99 0.33 1.98 0.66 3 1 C3 5.62 3 10.24 3 15 C1.68 15 0.36 15 -1 15 C-1.02685412 12.68756208 -1.04632841 10.3750373 -1.0625 8.0625 C-1.07410156 6.77472656 -1.08570313 5.48695312 -1.09765625 4.16015625 C-1 1 -1 1 0 0 Z " fill="#F5B4B4" transform="translate(35,46)"/>
<path d="M0 0 C0.99 0.33 1.98 0.66 3 1 C3 5.62 3 10.24 3 15 C1.68 15 0.36 15 -1 15 C-1.02685412 12.68756208 -1.04632841 10.3750373 -1.0625 8.0625 C-1.07410156 6.77472656 -1.08570312 5.48695312 -1.09765625 4.16015625 C-1 1 -1 1 0 0 Z " fill="#F5B4B4" transform="translate(27,46)"/>
<path d="M0 0 C1.67542976 0.28604898 3.34385343 0.61781233 5 1 C4.67 4.3 4.34 7.6 4 11 C2.68 11 1.36 11 0 11 C-0.19406478 9.35492782 -0.38007935 7.70890406 -0.5625 6.0625 C-0.66691406 5.14597656 -0.77132813 4.22945312 -0.87890625 3.28515625 C-0.91886719 2.53105469 -0.95882813 1.77695313 -1 1 C-0.67 0.67 -0.34 0.34 0 0 Z " fill="#EEA2A2" transform="translate(30,11)"/>
<path d="M0 0 C4.62 0 9.24 0 14 0 C14 1.32 14 2.64 14 4 C9.38 4 4.76 4 0 4 C0 2.68 0 1.36 0 0 Z " fill="#00AF75" transform="translate(25,38)"/>
<path d="M0 0 C1.32 0 2.64 0 4 0 C4 4.29 4 8.58 4 13 C2.68 13 1.36 13 0 13 C0 8.71 0 4.42 0 0 Z " fill="#0071AF" transform="translate(30,48)"/>
<path d="M0 0 C1.66611905 -0.042721 3.33382885 -0.04063832 5 0 C6 1 6 1 6.09765625 2.84765625 C6.06510417 4.8984375 6.03255208 6.94921875 6 9 C4.02 8.34 2.04 7.68 0 7 C-1.125 2.25 -1.125 2.25 0 0 Z " fill="#585858" transform="translate(35,16)"/>
<path d="M0 0 C1.2065625 0.0309375 1.2065625 0.0309375 2.4375 0.0625 C2.7675 2.0425 3.0975 4.0225 3.4375 6.0625 C-1.3125 9.0625 -1.3125 9.0625 -3.5625 9.0625 C-3.66015625 2.91015625 -3.66015625 2.91015625 -3.5625 1.0625 C-2.5625 0.0625 -2.5625 0.0625 0 0 Z " fill="#5A5A59" transform="translate(26.5625,15.9375)"/>
<path d="M0 0 C0.33 0 0.66 0 1 0 C1.36 5.4 1.36 5.4 -0.125 7.875 C-2.78034983 9.4682099 -4.96789518 9.20214032 -8 9 C-6.8553125 8.1646875 -6.8553125 8.1646875 -5.6875 7.3125 C-3.03568819 5.03070844 -1.68044905 3.02480829 0 0 Z " fill="#00996E" transform="translate(52,17)"/>
<path d="M0 0 C-1.66751148 3.94139078 -4.22710649 6.7892812 -7 10 C-7.33 9.01 -7.66 8.02 -8 7 C-6.85546875 5.17578125 -6.85546875 5.17578125 -5.1875 3.3125 C-4.37345703 2.37857422 -4.37345703 2.37857422 -3.54296875 1.42578125 C-2 0 -2 0 0 0 Z " fill="#C8D5D8" transform="translate(19,12)"/>
<path d="M0 0 C1.65 0 3.3 0 5 0 C5 1.32 5 2.64 5 4 C3.35 4 1.7 4 0 4 C0 2.68 0 1.36 0 0 Z " fill="#C88C8F" transform="translate(39,32)"/>
<path d="M0 0 C1.32 0 2.64 0 4 0 C4 1.65 4 3.3 4 5 C2.68 5 1.36 5 0 5 C0 3.35 0 1.7 0 0 Z " fill="#79B1D0" transform="translate(48,31)"/>
<path d="M0 0 C0.33 0 0.66 0 1 0 C1 1.98 1 3.96 1 6 C-0.98 6 -2.96 6 -5 6 C-3.35830472 3.97945196 -1.69088222 1.97956942 0 0 Z " fill="#C0C0C0" transform="translate(38,30)"/>
</svg>
