<svg xmlns="http://www.w3.org/2000/svg" xmlns:xlink="http://www.w3.org/1999/xlink" width="48" zoomAndPan="magnify" viewBox="0 0 36 36.000001" height="48" preserveAspectRatio="xMidYMid meet" version="1.0"><defs><clipPath id="4d1a01dfc2"><path d="M 2.425781 1.355469 L 33.074219 1.355469 L 33.074219 33.464844 L 2.425781 33.464844 Z M 2.425781 1.355469 " clip-rule="nonzero"/></clipPath></defs><g clip-path="url(#4d1a01dfc2)"><path fill="#5271ff" d="M 33.296875 1.875 C 33.175781 1.585938 32.910156 1.40625 32.597656 1.40625 L 18.300781 1.40625 C 17.410156 1.40625 16.699219 2.128906 16.699219 3.007812 L 16.699219 5.367188 L 14.230469 5.367188 C 13.339844 5.367188 12.628906 6.089844 12.628906 6.972656 L 12.628906 25.855469 C 12.628906 26.710938 12.472656 27.53125 12.183594 28.277344 C 11.472656 28.53125 10.710938 28.664062 9.917969 28.664062 C 9.015625 28.664062 8.136719 28.480469 7.304688 28.144531 C 7.074219 28.046875 6.808594 28.097656 6.640625 28.265625 L 2.640625 32.179688 C 2.496094 32.324219 2.425781 32.53125 2.472656 32.734375 C 2.511719 32.9375 2.65625 33.109375 2.835938 33.179688 C 3.785156 33.578125 4.808594 33.769531 5.847656 33.769531 C 9.027344 33.769531 11.785156 31.878906 13.035156 29.167969 C 15.855469 27.953125 17.832031 25.15625 17.832031 21.90625 L 17.832031 19.171875 L 20.960938 19.171875 C 21.15625 19.171875 21.347656 19.097656 21.492188 18.953125 L 25.179688 15.367188 C 25.394531 15.148438 25.46875 14.824219 25.347656 14.546875 C 25.226562 14.257812 24.960938 14.078125 24.648438 14.078125 L 17.84375 14.078125 L 17.84375 6.5 L 28.9375 6.5 C 29.128906 6.5 29.320312 6.429688 29.464844 6.285156 L 33.152344 2.695312 C 33.34375 2.476562 33.417969 2.164062 33.296875 1.875 Z M 5.847656 32.636719 C 5.230469 32.636719 4.617188 32.554688 4.039062 32.398438 L 7.183594 29.324219 C 8.050781 29.652344 8.964844 29.808594 9.90625 29.808594 C 10.433594 29.808594 10.953125 29.757812 11.460938 29.652344 C 10.242188 31.457031 8.183594 32.636719 5.847656 32.636719 Z M 16.699219 21.894531 C 16.699219 24.289062 15.445312 26.398438 13.566406 27.601562 C 13.699219 27.035156 13.757812 26.457031 13.757812 25.855469 L 13.757812 19.160156 L 16.699219 19.160156 Z M 16.699219 18.027344 L 13.757812 18.027344 L 13.757812 6.972656 C 13.757812 6.707031 13.976562 6.5 14.230469 6.5 L 16.6875 6.5 L 16.6875 18.027344 Z M 23.707031 15.195312 L 20.804688 18.027344 L 17.832031 18.027344 L 17.832031 15.195312 Z M 28.765625 5.367188 L 17.832031 5.367188 L 17.832031 3.007812 C 17.832031 2.742188 18.046875 2.539062 18.300781 2.539062 L 31.667969 2.539062 Z M 28.765625 5.367188 " fill-opacity="1" fill-rule="nonzero"/></g></svg>